<?xml version="1.0" standalone="no"?>
<!DOCTYPE svg PUBLIC "-//W3C//DTD SVG 20010904//EN"
 "http://www.w3.org/TR/2001/REC-SVG-20010904/DTD/svg10.dtd">
<svg version="1.0" xmlns="http://www.w3.org/2000/svg"
 width="512.000000pt" height="512.000000pt" viewBox="0 0 512.000000 512.000000"
 preserveAspectRatio="xMidYMid meet">
<metadata>
Created by potrace 1.14, written by Peter Selinger 2001-2017
</metadata>
<g transform="translate(0.000000,512.000000) scale(0.100000,-0.100000)"
fill="#000000" stroke="none">
<path d="M2413 5100 c-540 -45 -1024 -369 -1280 -858 l-45 -87 -92 -6 c-105
-6 -145 -24 -179 -79 -22 -35 -22 -38 -22 -560 0 -522 0 -525 22 -560 34 -55
74 -73 179 -79 l92 -6 45 -87 c223 -427 615 -727 1080 -827 704 -152 1418 185
1754 827 l45 87 92 6 c105 6 145 24 179 79 22 35 22 38 22 560 0 522 0 525
-22 560 -34 55 -74 73 -179 79 l-92 6 -45 87 c-259 496 -736 812 -1295 858
-128 11 -125 11 -259 0z m996 -965 c131 -34 259 -133 311 -240 25 -49 25 -54
24 -300 0 -224 -2 -258 -21 -327 -94 -337 -353 -595 -691 -691 -73 -21 -96
-22 -482 -22 -386 0 -409 1 -482 22 -338 96 -597 354 -691 691 -19 69 -21 103
-21 327 -1 246 -1 251 24 300 51 105 179 205 307 240 74 20 1646 21 1722 0z"/>
<path d="M2011 3808 c-29 -90 -58 -168 -65 -174 -6 -7 -84 -36 -173 -65 -90
-30 -163 -56 -163 -59 0 -3 73 -29 163 -59 89 -29 167 -58 173 -65 7 -6 36
-84 65 -173 30 -90 56 -163 59 -163 3 0 29 73 59 163 29 89 58 167 65 173 6 7
84 36 174 65 89 30 162 56 162 59 0 3 -73 29 -162 59 -90 29 -168 58 -174 65
-7 6 -36 84 -65 174 -30 89 -56 162 -59 162 -3 0 -29 -73 -59 -162z"/>
<path d="M1385 1874 c-399 -85 -740 -345 -925 -704 -103 -202 -143 -374 -144
-625 -1 -143 2 -167 22 -228 46 -133 165 -252 294 -296 59 -20 81 -21 509 -21
l448 0 3 363 c3 355 3 363 26 405 33 63 84 114 144 148 l53 29 735 0 735 0 53
-29 c60 -34 111 -85 144 -148 23 -42 23 -50 26 -406 l3 -362 448 0 c428 0 450
1 509 21 129 44 248 163 294 296 20 61 23 85 22 228 0 105 -6 193 -18 255 -47
260 -182 518 -370 706 -192 192 -478 338 -736 376 l-75 11 -51 -32 c-80 -49
-290 -146 -379 -174 -228 -74 -348 -92 -605 -92 -257 0 -377 18 -605 92 -87
28 -299 125 -376 173 -55 34 -80 36 -184 14z"/>
<path d="M2023 619 c-43 -13 -90 -62 -103 -107 -5 -21 -10 -142 -10 -274 l0
-238 161 0 160 0 -3 258 c-3 236 -5 260 -23 290 -36 60 -115 91 -182 71z"/>
<path d="M2983 619 c-44 -13 -90 -62 -103 -110 -22 -80 29 -167 111 -189 112
-31 220 77 189 189 -13 50 -60 97 -108 111 -43 11 -46 11 -89 -1z"/>
</g>
</svg>
